HIERARCHY
ROOT Hips
{
    OFFSET 0.000000 0.000000 0.000000
    CHANNELS 6 Xposition Yposition Zposition Zrotation Xrotation Yrotation
    JOINT Spine
    {
        OFFSET -0.000000 7.305679 0.000000
        CHANNELS 3 Zrotation Xrotation Yrotation
        JOINT Spine1
        {
            OFFSET -0.000000 20.356625 0.000000
            CHANNELS 3 Zrotation Xrotation Yrotation
            JOINT Neck
            {
                OFFSET -0.000000 22.138498 0.000000
                CHANNELS 3 Zrotation Xrotation Yrotation
                JOINT Head
                {
                    OFFSET -0.000000 13.809516 1.781873
                    CHANNELS 3 Zrotation Xrotation Yrotation
                    End Site
                    {
                        OFFSET -0.000000 17.818729 0.000000
                    }
                }
            }
            JOINT LeftShoulder
            {
                OFFSET 3.599131 17.989975 0.023592
                CHANNELS 3 Zrotation Xrotation Yrotation
                JOINT LeftArm
                {
                    OFFSET 12.560995 0.000000 0.000000
                    CHANNELS 3 Zrotation Xrotation Yrotation
                    JOINT LeftForeArm
                    {
                        OFFSET 22.903347 0.000000 0.000000
                        CHANNELS 3 Zrotation Xrotation Yrotation
                        JOINT LeftHand
                        {
                            OFFSET 21.865294 0.000000 0.000000
                            CHANNELS 3 Zrotation Xrotation Yrotation
                            JOINT LeftHandThumb1
                            {
                                OFFSET 1.853706 -2.106484 2.949078
                                CHANNELS 3 Zrotation Xrotation Yrotation
                                JOINT LeftHandThumb2
                                {
                                    OFFSET 2.049154 0.000000 1.336405
                                    CHANNELS 3 Zrotation Xrotation Yrotation
                                    JOINT LeftHandThumb3
                                    {
                                        OFFSET 2.672809 0.000000 0.000000
                                        CHANNELS 3 Zrotation Xrotation Yrotation
                                        End Site
                                        {
                                            OFFSET 2.381303 0.000000 0.000000
                                        }
                                    }
                                }
                            }
                            JOINT LeftHandIndex1
                            {
                                OFFSET 7.583345 0.000000 2.949078
                                CHANNELS 3 Zrotation Xrotation Yrotation
                                JOINT LeftHandIndex2
                                {
                                    OFFSET 4.454682 0.000000 0.000000
                                    CHANNELS 3 Zrotation Xrotation Yrotation
                                    JOINT LeftHandIndex3
                                    {
                                        OFFSET 2.227341 0.000000 0.000000
                                        CHANNELS 3 Zrotation Xrotation Yrotation
                                        End Site
                                        {
                                            OFFSET 1.984419 0.000000 0.000000
                                        }
                                    }
                                }
                            }
                            JOINT LeftHandMiddle1
                            {
                                OFFSET 7.583345 0.000000 0.977409
                                CHANNELS 3 Zrotation Xrotation Yrotation
                                JOINT LeftHandMiddle2
                                {
                                    OFFSET 4.900151 0.000000 0.000000
                                    CHANNELS 3 Zrotation Xrotation Yrotation
                                    JOINT LeftHandMiddle3
                                    {
                                        OFFSET 2.672809 0.000000 0.000000
                                        CHANNELS 3 Zrotation Xrotation Yrotation
                                        End Site
                                        {
                                            OFFSET 2.381303 0.000000 0.000000
                                        }
                                    }
                                }
                            }
                            JOINT LeftHandRing1
                            {
                                OFFSET 7.162047 0.000000 -0.977409
                                CHANNELS 3 Zrotation Xrotation Yrotation
                                JOINT LeftHandRing2
                                {
                                    OFFSET 4.454682 0.000000 0.000000
                                    CHANNELS 3 Zrotation Xrotation Yrotation
                                    JOINT LeftHandRing3
                                    {
                                        OFFSET 2.227341 0.000000 0.000000
                                        CHANNELS 3 Zrotation Xrotation Yrotation
                                        End Site
                                        {
                                            OFFSET 1.984419 0.000000 0.000000
                                        }
                                    }
                                }
                            }
                            JOINT LeftHandPinky1
                            {
                                OFFSET 6.740750 0.000000 -2.949078
                                CHANNELS 3 Zrotation Xrotation Yrotation
                                JOINT LeftHandPinky2
                                {
                                    OFFSET 3.563746 0.000000 0.000000
                                    CHANNELS 3 Zrotation Xrotation Yrotation
                                    JOINT LeftHandPinky3
                                    {
                                        OFFSET 1.781873 0.000000 0.000000
                                        CHANNELS 3 Zrotation Xrotation Yrotation
                                        End Site
                                        {
                                            OFFSET 1.587536 0.000000 0.000000
                                        }
                                    }
                                }
                            }
                        }
                    }
                }
            }
            JOINT RightShoulder
            {
                OFFSET -3.506995 17.989975 0.023592
                CHANNELS 3 Zrotation Xrotation Yrotation
                JOINT RightArm
                {
                    OFFSET -12.560995 0.000000 0.000000
                    CHANNELS 3 Zrotation Xrotation Yrotation
                    JOINT RightForeArm
                    {
                        OFFSET -22.903347 0.000000 0.000000
                        CHANNELS 3 Zrotation Xrotation Yrotation
                        JOINT RightHand
                        {
                            OFFSET -21.865294 0.000000 0.000000
                            CHANNELS 3 Zrotation Xrotation Yrotation
                            JOINT RightHandThumb1
                            {
                                OFFSET -1.853706 -2.106484 2.949078
                                CHANNELS 3 Zrotation Xrotation Yrotation
                                JOINT RightHandThumb2
                                {
                                    OFFSET -2.049154 0.000000 1.336405
                                    CHANNELS 3 Zrotation Xrotation Yrotation
                                    JOINT RightHandThumb3
                                    {
                                        OFFSET -2.672809 0.000000 0.000000
                                        CHANNELS 3 Zrotation Xrotation Yrotation
                                        End Site
                                        {
                                            OFFSET -2.381303 0.000000 0.000000
                                        }
                                    }
                                }
                            }
                            JOINT RightHandIndex1
                            {
                                OFFSET -7.583345 0.000000 2.949078
                                CHANNELS 3 Zrotation Xrotation Yrotation
                                JOINT RightHandIndex2
                                {
                                    OFFSET -4.454682 0.000000 0.000000
                                    CHANNELS 3 Zrotation Xrotation Yrotation
                                    JOINT RightHandIndex3
                                    {
                                        OFFSET -2.227341 0.000000 0.000000
                                        CHANNELS 3 Zrotation Xrotation Yrotation
                                        End Site
                                        {
                                            OFFSET -1.984419 0.000000 0.000000
                                        }
                                    }
                                }
                            }
                            JOINT RightHandMiddle1
                            {
                                OFFSET -7.583345 0.000000 0.977409
                                CHANNELS 3 Zrotation Xrotation Yrotation
                                JOINT RightHandMiddle2
                                {
                                    OFFSET -4.900151 0.000000 0.000000
                                    CHANNELS 3 Zrotation Xrotation Yrotation
                                    JOINT RightHandMiddle3
                                    {
                                        OFFSET -2.672809 0.000000 0.000000
                                        CHANNELS 3 Zrotation Xrotation Yrotation
                                        End Site
                                        {
                                            OFFSET -2.381303 0.000000 0.000000
                                        }
                                    }
                                }
                            }
                            JOINT RightHandRing1
                            {
                                OFFSET -7.162047 0.000000 -0.977409
                                CHANNELS 3 Zrotation Xrotation Yrotation
                                JOINT RightHandRing2
                                {
                                    OFFSET -4.454682 0.000000 0.000000
                                    CHANNELS 3 Zrotation Xrotation Yrotation
                                    JOINT RightHandRing3
                                    {
                                        OFFSET -2.227341 0.000000 0.000000
                                        CHANNELS 3 Zrotation Xrotation Yrotation
                                        End Site
                                        {
                                            OFFSET -1.984419 0.000000 0.000000
                                        }
                                    }
                                }
                            }
                            JOINT RightHandPinky1
                            {
                                OFFSET -6.740750 0.000000 -2.949078
                                CHANNELS 3 Zrotation Xrotation Yrotation
                                JOINT RightHandPinky2
                                {
                                    OFFSET -3.563746 0.000000 0.000000
                                    CHANNELS 3 Zrotation Xrotation Yrotation
                                    JOINT RightHandPinky3
                                    {
                                        OFFSET -1.781873 0.000000 0.000000
                                        CHANNELS 3 Zrotation Xrotation Yrotation
                                        End Site
                                        {
                                            OFFSET -1.587536 0.000000 0.000000
                                        }
                                    }
                                }
                            }
                        }
                    }
                }
            }
        }
    }
    JOINT LeftUpLeg
    {
        OFFSET 8.909365 0.000000 0.000000
        CHANNELS 3 Zrotation Xrotation Yrotation
        JOINT LeftLeg
        {
            OFFSET -0.000000 -38.765560 0.000000
            CHANNELS 3 Zrotation Xrotation Yrotation
            JOINT LeftFoot
            {
                OFFSET -0.000000 -35.244961 0.000000
                CHANNELS 3 Zrotation Xrotation Yrotation
                JOINT LeftToeBase
                {
                    OFFSET -0.000000 -5.791087 13.364048
                    CHANNELS 3 Zrotation Xrotation Yrotation
                    End Site
                    {
                        OFFSET -0.000000 0.000000 3.563746
                    }
                }
            }
        }
    }
    JOINT RightUpLeg
    {
        OFFSET -8.909365 0.000000 0.000000
        CHANNELS 3 Zrotation Xrotation Yrotation
        JOINT RightLeg
        {
            OFFSET -0.000000 -38.765560 0.000000
            CHANNELS 3 Zrotation Xrotation Yrotation
            JOINT RightFoot
            {
                OFFSET -0.000000 -35.244961 0.000000
                CHANNELS 3 Zrotation Xrotation Yrotation
                JOINT RightToeBase
                {
                    OFFSET -0.000000 -5.791087 13.364048
                    CHANNELS 3 Zrotation Xrotation Yrotation
                    End Site
                    {
                        OFFSET -0.000000 0.000000 3.563746
                    }
                }
            }
        }
    }
}
MOTION
Frames:    4
Frame Time:    0.008333
-8.747317    80.917946    117.162979    0.353648    -1.766925    4.017920    -0.243889    -0.215109    -1.520049    -0.697277    6.724280    -0.465493    1.200144    -1.300188    1.871640    1.345475    -0.859838    1.916609    2.033959    1.875141    -11.140887    -85.673187    30.809570    -3.019751    14.041753    -3.994509    -6.639596    -3.199908    -28.819450    7.015157    -1.100698    0.586456    -0.670579    0.000000    0.000000    0.000000    0.000000    0.000000    0.000000    -15.348697    2.887675    -10.400219    -31.223110    0.000000    0.000000    -15.611556    0.000000    0.000000    -24.034975    -0.484937    -2.232972    -48.081886    0.000000    0.000000    -24.040943    0.000000    0.000000    -32.184383    -5.017728    5.359578    -64.940651    0.000000    0.000000    -32.470333    0.000000    0.000000    -39.975323    -10.726856    12.517321    -82.310303    0.000000    0.000000    -41.155151    0.000000    0.000000    -4.328047    -2.518741    0.791421    96.829208    54.167084    -9.978308    -14.819785    -27.804527    7.978667    -6.083414    -41.833679    -0.434877    -0.667705    0.688369    -1.502951    0.000000    0.000000    -1.763781    0.000000    0.000000    -3.527562    8.234113    0.000000    -0.000000    16.468224    0.000000    -0.000000    8.234113    0.000000    -0.000000    16.921560    -0.790481    -1.637529    33.877552    0.000000    -0.000000    16.938776    0.000000    -0.000000    25.586147    -1.818934    -3.137430    51.286873    0.000000    -0.000000    25.643442    0.000000    -0.000000    34.489876    -3.101986    -4.503623    69.223770    0.000000    -0.000000    34.611885    0.000000    -0.000000    -0.068335    2.406475    -0.781619    0.162872    -1.876929    5.079544    -1.166377    1.454266    -5.332810    0.071885    0.483344    -0.119131    -1.705579    2.920177    -3.911150    1.072789    1.724619    -1.289236    1.184833    -3.267537    -0.214137    -0.269260    -0.115969    0.412054    
-8.746919    80.919212    117.172073    0.355143    -1.758266    3.982906    -0.241486    -0.211201    -1.523436    -0.690295    6.724325    -0.466963    1.184513    -1.361218    1.881896    1.310976    -0.786502    1.928006    2.028070    1.876228    -11.147155    -85.700630    30.808683    -3.025057    14.040478    -4.005175    -6.631754    -3.200024    -28.828886    7.028430    -1.100195    0.593577    -0.661363    0.000000    0.000000    0.000000    0.000000    0.000000    0.000000    -15.367123    2.893351    -10.407368    -31.261366    0.000000    0.000000    -15.630680    0.000000    0.000000    -24.053450    -0.476685    -2.246964    -48.118572    0.000000    0.000000    -24.059292    0.000000    0.000000    -32.203693    -5.005977    5.339068    -64.975777    0.000000    0.000000    -32.487900    0.000000    0.000000    -39.996422    -10.710775    12.490306    -82.343819    0.000000    0.000000    -41.171909    0.000000    0.000000    -4.328468    -2.513753    0.797996    96.829277    54.131145    -9.976967    -14.791701    -27.776527    7.967392    -6.108666    -41.843269    -0.463694    -0.663044    0.690317    -1.503147    0.000000    0.000000    -1.766114    0.000000    0.000000    -3.532229    8.230200    0.000000    -0.000000    16.460402    0.000000    -0.000000    8.230200    0.000000    -0.000000    16.919714    -0.791633    -1.639892    33.873970    0.000000    -0.000000    16.936981    0.000000    -0.000000    25.586300    -1.821635    -3.141920    51.287533    0.000000    -0.000000    25.643764    0.000000    -0.000000    34.492023    -3.106646    -4.509993    69.228775    0.000000    -0.000000    34.614388    0.000000    -0.000000    -0.075975    2.405941    -0.751410    0.172250    -1.870349    5.098006    -1.187024    1.443553    -5.345426    0.071895    0.474659    -0.120208    -1.705601    2.898742    -3.908573    1.062982    1.754873    -1.272540    1.190503    -3.285029    -0.198624    -0.269320    -0.116482    0.412098    
-8.746511    80.920479    117.181206    0.356778    -1.749894    3.948117    -0.239547    -0.206378    -1.527007    -0.683108    6.723813    -0.468577    1.169909    -1.422302    1.891262    1.275893    -0.713754    1.938770    2.022435    1.877218    -11.153655    -85.729027    30.810272    -3.029016    14.040544    -4.016780    -6.625556    -3.202622    -28.838711    7.039598    -1.097843    0.599410    -0.651357    0.000000    0.000000    0.000000    0.000000    0.000000    0.000000    -15.380667    2.899227    -10.418597    -31.290100    0.000000    0.000000    -15.645050    0.000000    0.000000    -24.068350    -0.467154    -2.264571    -48.148056    0.000000    0.000000    -24.074028    0.000000    0.000000    -32.220810    -4.992126    5.315442    -65.006004    0.000000    0.000000    -32.503002    0.000000    0.000000    -40.016804    -10.692006    12.460631    -82.374817    0.000000    0.000000    -41.187405    0.000000    0.000000    -4.328822    -2.508923    0.804277    96.831085    54.097855    -9.977323    -14.764716    -27.751522    7.956195    -6.132477    -41.852871    -0.492056    -0.659300    0.692010    -1.503503    0.000000    0.000000    -1.768526    0.000000    0.000000    -3.537052    8.227672    0.000000    -0.000000    16.455343    0.000000    -0.000000    8.227672    0.000000    -0.000000    16.919903    -0.792447    -1.641359    33.874413    0.000000    -0.000000    16.937206    0.000000    -0.000000    25.589165    -1.823546    -3.144666    51.293472    0.000000    -0.000000    25.646740    0.000000    -0.000000    34.497601    -3.109940    -4.513813    69.240395    0.000000    -0.000000    34.620201    0.000000    -0.000000    -0.083860    2.405253    -0.721457    0.181783    -1.862956    5.116696    -1.205641    1.432198    -5.358410    0.071900    0.467141    -0.121131    -1.705921    2.877928    -3.906301    1.053692    1.784594    -1.255120    1.194970    -3.302182    -0.183932    -0.269459    -0.116800    0.412286    
-8.746107    80.921776    117.190536    0.358624    -1.742122    3.913714    -0.238367    -0.200201    -1.530954    -0.675695    6.722522    -0.470330    1.156988    -1.483026    1.898946    1.240387    -0.642300    1.948164    2.017474    1.878470    -11.161013    -85.758842    30.815243    -3.030990    14.042641    -4.029971    -6.622860    -3.209328    -28.848997    7.047161    -1.092837    0.603364    -0.640290    0.000000    0.000000    0.000000    0.000000    0.000000    0.000000    -15.387018    2.904730    -10.433501    -31.304560    0.000000    0.000000    -15.652282    0.000000    0.000000    -24.077583    -0.456454    -2.285671    -48.166153    0.000000    0.000000    -24.083075    0.000000    0.000000    -32.233990    -4.975826    5.288592    -65.027748    0.000000    0.000000    -32.513874    0.000000    0.000000    -40.035072    -10.669737    12.427974    -82.400291    0.000000    0.000000    -41.200146    0.000000    0.000000    -4.329093    -2.504194    0.810150    96.835930    54.069481    -9.980423    -14.739739    -27.732580    7.945080    -6.153651    -41.861744    -0.519752    -0.657281    0.692986    -1.503796    0.000000    0.000000    -1.770578    0.000000    0.000000    -3.541156    8.226908    0.000000    -0.000000    16.453815    0.000000    -0.000000    8.226908    0.000000    -0.000000    16.923332    -0.792503    -1.640912    33.881264    0.000000    -0.000000    16.940632    0.000000    -0.000000    25.596792    -1.823699    -3.143693    51.308723    0.000000    -0.000000    25.654356    0.000000    -0.000000    34.509571    -3.110210    -4.512192    69.264267    0.000000    -0.000000    34.632137    0.000000    -0.000000    -0.092054    2.404572    -0.691731    0.191424    -1.854208    5.136130    -1.220830    1.419610    -5.372531    0.071909    0.461803    -0.121802    -1.706436    2.858310    -3.904493    1.044621    1.813604    -1.236792    1.198143    -3.319212    -0.170416    -0.269792    -0.116226    0.412867    
